<?xml version="1.0" encoding="UTF-8"?>
<!DOCTYPE svg PUBLIC "-//W3C//DTD SVG 1.1//EN" "http://www.w3.org/Graphics/SVG/1.1/DTD/svg11.dtd">
<svg xmlns="http://www.w3.org/2000/svg" version="1.1" width="976px" height="976px" style="shape-rendering:geometricPrecision; text-rendering:geometricPrecision; image-rendering:optimizeQuality; fill-rule:evenodd; clip-rule:evenodd" xmlns:xlink="http://www.w3.org/1999/xlink">
<g><path style="opacity:0.406" fill="#555555" d="M 467.5,1.5 C 480.504,1.33344 493.504,1.50011 506.5,2C 495.547,3.10683 484.547,3.60683 473.5,3.5C 464.167,3.33333 454.833,3.16667 445.5,3C 453.011,2.82879 460.345,2.32879 467.5,1.5 Z"/></g>
<g><path style="opacity:0.059" fill="#545554" d="M 423.5,6.5 C 423.897,5.47498 424.563,5.30831 425.5,6C 424.906,6.46434 424.239,6.63101 423.5,6.5 Z"/></g>
<g><path style="opacity:0.186" fill="#535353" d="M 553.5,7.5 C 554.601,6.40168 555.934,6.23502 557.5,7C 556.207,7.49001 554.873,7.65668 553.5,7.5 Z"/></g>
<g><path style="opacity:0.161" fill="#494949" d="M 560.5,8.5 C 561.601,7.40168 562.934,7.23502 564.5,8C 563.207,8.49001 561.873,8.65668 560.5,8.5 Z"/></g>
<g><path style="opacity:0.067" fill="#4e4e4e" d="M 622.5,29.5 C 622.897,28.475 623.563,28.3083 624.5,29C 623.906,29.4643 623.239,29.631 622.5,29.5 Z"/></g>
<g><path style="opacity:0.974" fill="#030303" d="M 724.5,174.5 C 732.577,193.082 740.244,211.748 747.5,230.5C 750.091,237.773 752.591,245.106 755,252.5C 755.513,265.169 756.013,277.836 756.5,290.5C 755.334,391.666 755.167,492.999 756,594.5C 756.383,595.056 756.883,595.389 757.5,595.5C 757.39,675.096 757.223,754.762 757,834.5C 755.957,839.223 753.124,841.056 748.5,840C 726.647,823.822 703.981,808.822 680.5,795C 664.822,786.219 648.155,780.219 630.5,777C 610.475,774.673 591.809,778.673 574.5,789C 555.735,800.324 538.902,814.157 524,830.5C 511.773,847.783 498.94,864.616 485.5,881C 462.764,881.512 440.097,880.846 417.5,879C 397.964,844.619 374.298,813.285 346.5,785C 341.372,780.546 335.705,776.879 329.5,774C 309.125,771.412 288.792,768.578 268.5,765.5C 235.173,775.165 204.173,789.665 175.5,809C 171.095,811.372 166.428,812.872 161.5,813.5C 159.289,812.877 157.289,811.877 155.5,810.5C 185.657,631.883 216.324,453.549 247.5,275.5C 250.45,262.065 252.783,248.398 254.5,234.5C 256.01,225.777 257.843,217.11 260,208.5C 273.255,176.644 289.589,146.644 309,118.5C 337.451,82.3476 374.284,59.5142 419.5,50C 489.681,35.9274 557.014,41.5941 621.5,67C 658.49,83.326 687.323,108.826 708,143.5C 714.049,153.601 719.549,163.935 724.5,174.5 Z M 367.5,81.5 C 367.167,82.1667 366.833,82.8333 366.5,83.5C 365.833,83.5 365.167,83.5 364.5,83.5C 364.973,82.0937 365.973,81.427 367.5,81.5 Z M 362.5,84.5 C 362.167,85.1667 361.833,85.8333 361.5,86.5C 360.833,86.5 360.167,86.5 359.5,86.5C 359.973,85.0937 360.973,84.427 362.5,84.5 Z M 359.5,86.5 C 359.027,87.9063 358.027,88.573 356.5,88.5C 356.973,87.0937 357.973,86.427 359.5,86.5 Z"/></g>
<g><path style="opacity:0.999" fill="#fefefe" d="M 473.5,869.5 C 468.595,870.445 463.595,870.779 458.5,870.5C 447.828,870.667 437.161,870.5 426.5,870C 425.376,869.751 424.376,869.251 423.5,868.5C 407.466,841.633 389.299,816.3 369,792.5C 356.574,778.549 342.074,767.382 325.5,759C 301.225,750.48 276.892,750.48 252.5,759C 222.816,770.176 194.483,784.009 167.5,800.5C 199.279,612.594 231.779,424.594 265,236.5C 275.471,194.893 293.471,156.893 319,122.5C 324.698,115.636 330.865,109.303 337.5,103.5C 337.833,103.5 338.167,103.5 338.5,103.5C 340.389,102.396 342.055,101.063 343.5,99.5C 343.369,98.7611 343.536,98.0944 344,97.5C 345.302,96.9152 346.469,96.2485 347.5,95.5C 348.5,94.5 349.5,93.5 350.5,92.5C 351.167,92.5 351.833,92.5 352.5,92.5C 356.573,92.0915 359.573,90.0915 361.5,86.5C 361.833,85.8333 362.167,85.1667 362.5,84.5C 363.492,84.6716 364.158,84.3382 364.5,83.5C 365.167,83.5 365.833,83.5 366.5,83.5C 369.004,82.4161 371.337,81.0828 373.5,79.5C 376.004,78.4161 378.337,77.0828 380.5,75.5C 380.5,75.1667 380.5,74.8333 380.5,74.5C 410.646,60.9025 442.313,53.7359 475.5,53C 520.382,51.1205 564.048,57.4538 606.5,72C 651.342,89.5056 684.842,119.672 707,162.5C 717.173,182.369 726.173,202.702 734,223.5C 737.348,244.225 741.015,264.892 745,285.5C 746.515,465.497 746.848,645.497 746,825.5C 721.828,807.499 696.328,791.665 669.5,778C 652.773,770.61 635.273,766.443 617,765.5C 599.111,766.464 582.611,771.631 567.5,781C 548.598,792.557 531.432,806.39 516,822.5C 501.655,838.012 487.488,853.678 473.5,869.5 Z"/></g>
<g><path style="opacity:0.478" fill="#919194" d="M 377.5,75.5 C 378.5,75.5 379.5,75.5 380.5,75.5C 378.337,77.0828 376.004,78.4161 373.5,79.5C 373.5,79.1667 373.5,78.8333 373.5,78.5C 374.167,78.5 374.5,78.1667 374.5,77.5C 375.167,77.5 375.5,77.1667 375.5,76.5C 376.492,76.6716 377.158,76.3382 377.5,75.5 Z"/></g>
<g><path style="opacity:0.369" fill="#959699" d="M 370.5,79.5 C 371.5,79.5 372.5,79.5 373.5,79.5C 371.337,81.0828 369.004,82.4161 366.5,83.5C 366.833,82.8333 367.167,82.1667 367.5,81.5C 368.167,81.5 368.5,81.1667 368.5,80.5C 369.492,80.6716 370.158,80.3382 370.5,79.5 Z"/></g>
<g><path style="opacity:0.004" fill="#000000" d="M 222.5,88.5 C 223.833,89.1667 223.833,89.1667 222.5,88.5 Z"/></g>
<g><path style="opacity:0.729" fill="#acadb0" d="M 359.5,86.5 C 360.167,86.5 360.833,86.5 361.5,86.5C 359.573,90.0915 356.573,92.0915 352.5,92.5C 352.5,92.1667 352.5,91.8333 352.5,91.5C 353.167,91.5 353.5,91.1667 353.5,90.5C 354.167,90.5 354.5,90.1667 354.5,89.5C 355.492,89.6716 356.158,89.3382 356.5,88.5C 358.027,88.573 359.027,87.9063 359.5,86.5 Z"/></g>
<g><path style="opacity:0.224" fill="#909093" d="M 343.5,99.5 C 342.055,101.063 340.389,102.396 338.5,103.5C 339.129,101.003 340.796,99.6696 343.5,99.5 Z"/></g>
<g><path style="opacity:1" fill="#000000" d="M 427.5,121.5 C 433.929,120.698 439.929,121.864 445.5,125C 453.655,132.823 459.822,141.99 464,152.5C 465.2,158.969 466.867,165.303 469,171.5C 469.667,186.833 469.667,202.167 469,217.5C 466.47,234.54 460.137,249.873 450,263.5C 433.712,274.416 420.378,271.416 410,254.5C 401.113,235.576 396.613,215.576 396.5,194.5C 397.431,178.145 400.264,162.145 405,146.5C 407.82,140.863 411.153,135.53 415,130.5C 417.403,129.219 419.237,127.386 420.5,125C 423.174,124.33 425.507,123.163 427.5,121.5 Z"/></g>
<g><path style="opacity:1" fill="#000000" d="M 586.5,121.5 C 592.965,120.697 598.965,121.864 604.5,125C 612.157,131.264 617.657,139.098 621,148.5C 628.22,170.582 630.553,193.249 628,216.5C 625.814,231.532 620.814,245.532 613,258.5C 596.808,275.429 582.141,274.096 569,254.5C 556.665,228.885 552.665,201.885 557,173.5C 558.618,154.373 566.118,138.206 579.5,125C 581.994,123.968 584.328,122.802 586.5,121.5 Z"/></g>
<g><path style="opacity:0.555" fill="#535353" d="M 162.5,136.5 C 163.391,134.391 164.558,132.391 166,130.5C 166.75,131.126 167.584,131.626 168.5,132C 166.649,133.752 164.649,135.252 162.5,136.5 Z"/></g>
<g><path style="opacity:0.09" fill="#4d4e4d" d="M 162.5,136.5 C 161.833,137.167 161.833,137.167 162.5,136.5 Z"/></g>
<g><path style="opacity:0.435" fill="#949496" d="M 724.5,174.5 C 725.885,175.574 727.051,176.907 728,178.5C 732.868,188.784 737.535,199.117 742,209.5C 744.304,216.385 746.138,223.385 747.5,230.5C 740.244,211.748 732.577,193.082 724.5,174.5 Z"/></g>
<g><path style="opacity:0.737" fill="#88898b" d="M 254.5,234.5 C 252.783,248.398 250.45,262.065 247.5,275.5C 248.429,261.483 250.763,247.817 254.5,234.5 Z"/></g>
<g><path style="opacity:1" fill="#ea615a" d="M 514.5,317.5 C 530.893,319.111 543.06,327.111 551,341.5C 563.035,363.331 568.535,386.831 567.5,412C 567.324,431.836 563.824,451.002 557,469.5C 551.411,482.416 542.911,492.916 531.5,501C 517.129,507.828 503.796,506.161 491.5,496C 479.016,483.531 470.849,468.697 467,451.5C 460.108,419.792 461.442,388.459 471,357.5C 474.185,351.623 477.185,345.623 480,339.5C 486.49,329.668 495.324,322.834 506.5,319C 509.365,318.817 512.031,318.317 514.5,317.5 Z"/></g>
<g><path style="opacity:0.627" fill="#46464a" d="M 756.5,290.5 C 757.482,392.155 757.815,493.822 757.5,595.5C 756.883,595.389 756.383,595.056 756,594.5C 755.167,492.999 755.334,391.666 756.5,290.5 Z"/></g>
<g><path style="opacity:0.427" fill="#565656" d="M 934.5,650.5 C 935.022,647.432 935.855,644.432 937,641.5C 937.328,644.207 936.995,646.874 936,649.5C 935.617,650.056 935.117,650.389 934.5,650.5 Z"/></g>
<g><path style="opacity:0.302" fill="#525252" d="M 934.5,650.5 C 934.598,652.553 933.931,654.22 932.5,655.5C 932.402,653.447 933.069,651.78 934.5,650.5 Z"/></g>
<g><path style="opacity:0.358" fill="#545454" d="M 932.5,655.5 C 932.818,658.481 931.818,660.815 929.5,662.5C 929.707,659.759 930.707,657.426 932.5,655.5 Z"/></g>
<g><path style="opacity:0.106" fill="#545554" d="M 929.5,662.5 C 928.833,663.167 928.833,663.167 929.5,662.5 Z"/></g>
<g><path style="opacity:0.024" fill="#545554" d="M 927.5,664.5 C 928.833,665.167 928.833,665.167 927.5,664.5 Z"/></g>
<g><path style="opacity:0.09" fill="#4d4e4d" d="M 131.5,803.5 C 130.833,802.167 130.833,802.167 131.5,803.5 Z"/></g>
<g><path style="opacity:0.354" fill="#545454" d="M 131.5,803.5 C 134.395,805.202 136.228,807.536 137,810.5C 134.195,808.869 132.362,806.536 131.5,803.5 Z"/></g>
<g><path style="opacity:0.007" fill="#c2c3c3" d="M 155.5,810.5 C 157.289,811.877 159.289,812.877 161.5,813.5C 160.054,814.613 158.387,814.78 156.5,814C 155.663,812.989 155.33,811.822 155.5,810.5 Z"/></g>
<g><path style="opacity:1" fill="#6f6f6f" d="M 473.5,869.5 C 471.429,870.809 468.929,871.475 466,871.5C 463.31,871.497 460.81,871.164 458.5,870.5C 463.595,870.779 468.595,870.445 473.5,869.5 Z"/></g>
<g><path style="opacity:0.133" fill="#525352" d="M 690.5,916.5 C 691.833,917.167 691.833,917.167 690.5,916.5 Z"/></g>
<g><path style="opacity:0.529" fill="#4f4f4f" d="M 690.5,917.5 C 688.873,919.63 687.04,921.63 685,923.5C 684.167,922.667 683.333,921.833 682.5,921C 685.032,919.544 687.699,918.377 690.5,917.5 Z"/></g>
<g><path style="opacity:0.135" fill="#545554" d="M 387.5,952.5 C 386.761,952.631 386.094,952.464 385.5,952C 386.437,951.308 387.103,951.475 387.5,952.5 Z"/></g>
<g><path style="opacity:0.612" fill="#555555" d="M 387.5,952.5 C 390.874,952.674 394.207,953.174 397.5,954C 395.833,954.167 394.167,954.333 392.5,954.5C 390.36,954.444 388.694,953.777 387.5,952.5 Z"/></g>
</svg>
